<svg id="fair" xmlns="http://www.w3.org/2000/svg" viewBox="0 0 205 190"><defs><style>.cls-1,.cls-10,.cls-12,.cls-2{fill:none;}.cls-1,.cls-2{stroke:#cc4e00;}.cls-1{stroke-miterlimit:10;}.cls-10,.cls-12,.cls-2{stroke-linecap:round;stroke-linejoin:round;}.cls-3{fill:#f58220;}.cls-4{fill:#ccf;}.cls-5{opacity:0.1;isolation:isolate;}.cls-6{fill:#8e8eed;}.cls-7{fill:#4d9aff;}.cls-8{fill:#cc4e00;}.cls-9{fill:#ffc24f;}.cls-10{stroke:#fff;stroke-width:0.5px;}.cls-11{fill:#fff;}.cls-12{stroke:#f58220;stroke-width:0.86px;}.cls-13{fill:#ffe5b2;}.cls-14{fill:#e085d3;}</style></defs><title>2</title><polyline class="cls-1" points="62.24 136.22 62.24 74.61 104.11 46.1"/><polyline class="cls-1" points="147.25 136.59 147.25 74.99 105.38 46.47"/><polyline class="cls-1" points="106.94 45.7 180.14 58.98 180.14 86"/><polyline class="cls-1" points="104.13 45.91 30.93 59.19 30.93 86.22"/><line class="cls-1" x1="104.4" y1="86.35" x2="104.4" y2="46.21"/><line class="cls-2" x1="104.88" y1="44.46" x2="104.88" y2="4.32"/><ellipse class="cls-3" cx="105.44" cy="46.29" rx="8.13" ry="2.64"/><path class="cls-4" d="M194.39,119.14l-26.89-8.55,8-25.19a1,1,0,0,1,1.21-.63l7.2,2.29a1,1,0,0,1,.63.63l.92,3a1,1,0,0,0,.63.63L201,96.06a1,1,0,0,1,.63,1.22Z"/><path class="cls-5" d="M201,96.06l-1.9-.61a202.38,202.38,0,0,1-8.81,22.39l4.08,1.3,7.26-21.86A1,1,0,0,0,201,96.06Z"/><path class="cls-6" d="M194.46,119.16l-27-8.57,10.57-17.93a1,1,0,0,1,1.12-.43l25.08,8a1,1,0,0,1,.54,1.41Z"/><path class="cls-5" d="M204.27,100.2l-1.35-.43c-2.62,5.57-6.25,10.26-10.27,14.93-.87,1-1.71,2-2.55,3.07l4.36,1.39,10.35-17.55A1,1,0,0,0,204.27,100.2Z"/><circle class="cls-3" cx="179.74" cy="59.62" r="2.99"/><circle class="cls-3" cx="147.13" cy="75.7" r="2.99"/><circle class="cls-3" cx="61.69" cy="74.55" r="2.99"/><circle class="cls-3" cx="30.92" cy="59.39" r="2.99"/><rect class="cls-7" x="120.98" y="133.37" width="38.26" height="48.6" rx="3.03" transform="translate(-57.02 82.64) rotate(-27.54)"/><path class="cls-8" d="M126.29,172.34l4.34-9.9,8.19,1.24,5.5-17.18,13.3,3.25,9.14,18a2.94,2.94,0,0,1-1.26,3.93L137.16,186.6a3.05,3.05,0,0,1-4.1-1.1Z"/><path class="cls-5" d="M166.9,167.67,147.24,130a3,3,0,0,0-2.46-1.61A114.22,114.22,0,0,1,157,154.85a104.79,104.79,0,0,1,3.89,16c.17,1,.28,2.1.38,3.16l4.34-2.26A3,3,0,0,0,166.9,167.67Z"/><circle class="cls-9" cx="128.96" cy="149.97" r="6.01"/><line class="cls-10" x1="138.82" y1="163.68" x2="165.02" y2="170.71"/><circle class="cls-11" cx="139.08" cy="139.95" r="3.16"/><path class="cls-2" d="M139.21,141.06c-2.92-2.61-3.89-7.54-3.92-11.29"/><path class="cls-9" d="M109.24,96.36s12.17,7.07,9.68,17.88-10.62,14.83-19.66,14.55-16.77-10.08-14.4-20.6c1.49-6.22,6.06-12.11,12.31-12.78C102.88,95.7,109.24,96.36,109.24,96.36Z"/><path class="cls-5" d="M109.24,96.36l-.3,0c2.48,3.69,4.49,6.92,5,11.66.53,4.53-.06,9.29-2.6,13.18a22.2,22.2,0,0,1-8.67,7.51c7.6-.76,14-5,16.22-14.44C121.41,103.43,109.24,96.36,109.24,96.36Z"/><rect class="cls-3" x="93.51" y="90.7" width="18.29" height="5.23" rx="1.71" transform="translate(197.39 194.66) rotate(-175.34)"/><path class="cls-5" d="M93.84,91.89c5.89,0,11.79,0,17.68.12a1.71,1.71,0,0,0-1.24-.7L95.46,90.1a1.71,1.71,0,0,0-1.84,1.57l0,.24Z"/><rect class="cls-3" x="96.16" y="86.8" width="14.39" height="4.11" rx="1.35" transform="translate(199.14 185.81) rotate(-175.34)"/><path class="cls-5" d="M110.17,87.65a1.41,1.41,0,0,0-.82-.37l-11.66-1a1.35,1.35,0,0,0-1.45,1.2C100.86,87.8,105.52,87.71,110.17,87.65Z"/><path class="cls-12" d="M105.54,96c.07.4,2.47,18.52,2.47,18.52l-6.63-5.69-6.84,3.76,4.75-17.15"/><circle class="cls-3" cx="103.4" cy="86.58" r="2.93"/><circle class="cls-11" cx="103.15" cy="86.91" r="1.75"/><path class="cls-2" d="M103.42,87.42c-2.92-2.61-3.88-7.53-3.91-11.28"/><circle class="cls-11" cx="177.95" cy="88.85" r="2.21"/><path class="cls-2" d="M178,89.56c-2.92-2.6-3.88-7.53-3.91-11.28"/><rect class="cls-6" x="4.88" y="86.14" width="33.43" height="33.43" rx="2" transform="translate(-37.87 16.2) rotate(-22.6)"/><path class="cls-5" d="M28.76,81.77,28,82.1c5,10.61,5.7,22.12,6.17,33.64l7.47-3.11A2,2,0,0,0,42.69,110L31.38,82.85A2,2,0,0,0,28.76,81.77Z"/><polygon class="cls-13" points="4.59 95.81 8.63 104.24 16.89 99.81 13.29 91.94 4.59 95.81"/><line class="cls-10" x1="11.01" y1="107.57" x2="29.59" y2="99.06"/><line class="cls-10" x1="12.78" y1="110.59" x2="30.8" y2="102.33"/><line class="cls-10" x1="14.09" y1="113.43" x2="28.56" y2="107.09"/><path class="cls-10" d="M16.25,117.66s-.05-1.16,1.94-.89c1.36,0,.66-.5,1.2-1.24s1-.16,1.57-.23.91-.8,1.92-1.37,1.72.1,2.61-.31"/><rect class="cls-14" x="40.34" y="136.21" width="39.55" height="39.55" rx="2.28" transform="translate(-92.69 88.2) rotate(-45)"/><path class="cls-5" d="M57.65,130.83C66.9,140,77,148.14,87.11,156.32a2.25,2.25,0,0,0-.63-1.95L61.73,129.63a2.28,2.28,0,0,0-3.22,0l-1,1Z"/><path class="cls-11" d="M54,148.55a17.65,17.65,0,0,0,4.61-2c1.28-.8,2.71-1.76,2.93-3.37a1.8,1.8,0,0,0-.42-1.66,1.42,1.42,0,0,0-1.58,0c-1.17.71-1.24,2.35-1,3.54A4.46,4.46,0,0,0,61,148.57c1.17.54,2.9,1,4.08.29a4.43,4.43,0,0,0,1.34-1.57,2,2,0,0,0,.36-1.78,1,1,0,0,0-1.28-.58,1.44,1.44,0,0,0-.79,1.4c.08,1.85,2.17,2.41,3.64,2.65a53.94,53.94,0,0,0,6.47.67c.54,0,.53-.81,0-.83A40,40,0,0,1,67.6,148a3.16,3.16,0,0,1-1.54-.71c-.28-.27-.83-1.13-.34-1.48.32-.22.38.21.29.49a5.58,5.58,0,0,1-1.34,1.85c-.9.57-2.35.11-3.24-.29a3.51,3.51,0,0,1-2-2.41,3.67,3.67,0,0,1,.17-2.8c.3-.46,1-.84,1.14-.08a2.21,2.21,0,0,1-.49,1.64,9.09,9.09,0,0,1-3,2.17,16.57,16.57,0,0,1-3.48,1.37.42.42,0,0,0,.22.81Z"/><path class="cls-11" d="M54.65,159.21c.11-.72,2.48-.28,3-.26a3.62,3.62,0,0,0,2.41-.69,2.64,2.64,0,0,0,1.05-2.12c-.08-.82-1.05-1.2-1.76-1.33a1.54,1.54,0,0,0-1.82.95,2.39,2.39,0,0,0,.83,2.21c1.49,1.45,3.66,1.31,5.58,1.24a14.07,14.07,0,0,1,7.26,1.36c.47.25.89-.47.42-.72a13.47,13.47,0,0,0-6-1.48c-2-.07-4.54.56-6.31-.72a2.42,2.42,0,0,1-.9-1.12c-.35-1.06.8-1,1.43-.7,1.24.56-.29,2-1,2.18a14,14,0,0,1-3.17,0c-.67,0-1.6.17-1.73,1-.08.53.72.75.81.22Z"/><path class="cls-11" d="M52.07,167.52a8.36,8.36,0,0,0,2.91.81,12.22,12.22,0,0,0,3.36.15,7.32,7.32,0,0,0,2.8-1.08,2.51,2.51,0,0,0,1.38-1.82c.16-1.68-2.36-2.18-2.45-.39-.11,2.1,2.66,2.59,4.17,2.87,1.32.24,2.65.41,4,.52,1.06.08,2.19.25,3.06-.47.42-.34-.17-.92-.59-.59-.67.55-1.93.27-2.71.2-1-.08-2-.21-3-.38a14.15,14.15,0,0,1-2.58-.57,2.53,2.53,0,0,1-1.17-.78c-.18-.24-.6-1.16.08-1.12s.45.79.25,1.11a2.58,2.58,0,0,1-1,.8,6.3,6.3,0,0,1-2.68.92,14,14,0,0,1-2.89-.2,7.46,7.46,0,0,1-2.5-.7c-.47-.26-.89.46-.42.72Z"/><circle class="cls-11" cx="49.51" cy="146.87" r="1.57"/><circle class="cls-11" cx="48.62" cy="158.08" r="1.57"/><circle class="cls-11" cx="47.64" cy="166.41" r="1.57"/><circle class="cls-11" cx="59.95" cy="134.36" r="2.62"/><path class="cls-2" d="M60.07,134.93c-2.92-2.61-3.88-7.53-3.91-11.28"/><circle class="cls-11" cx="27.25" cy="86.29" r="2.62"/><path class="cls-2" d="M27.37,86.86c-2.91-2.61-3.88-7.53-3.91-11.28"/></svg>