<svg xmlns="http://www.w3.org/2000/svg" viewBox="0 0 205 192"><defs><style>.cls-1{fill:#e085d3;opacity:0.5;}.cls-2{fill:#faf1e1;}.cls-3{fill:#fff;}.cls-4{fill:#dcf5de;}.cls-5{fill:#efc1ea;}.cls-6{fill:#db80ce;}.cls-7{fill:#314351;}.cls-8{fill:#ff8080;}.cls-9{fill:#fda;}.cls-10{fill:#8e8eed;}.cls-11{opacity:0.1;isolation:isolate;}.cls-12,.cls-17,.cls-20{fill:none;}.cls-12{stroke:#8e8eed;stroke-width:2px;}.cls-12,.cls-17{stroke-miterlimit:10;}.cls-13{fill:#ffc74f;}.cls-14{fill:#cc8672;}.cls-15{fill:#f58220;}.cls-16{fill:#ffb6b2;}.cls-17{stroke:#314351;}.cls-18{fill:#4d9aff;}.cls-19{fill:#7dcc7a;}.cls-20{stroke:#fff;stroke-linecap:round;stroke-linejoin:round;stroke-width:2.29px;}</style></defs><title>2</title><g id="fair"><path class="cls-1" d="M52.45,7.53H159.5v94.25l-18,42.31v44.15a3,3,0,0,1-3,3h-101a3,3,0,0,1-3-3V144.09l18.06-42.31Z"/><path class="cls-2" d="M52.19,5H156.24a0,0,0,0,1,0,0V52.18a0,0,0,0,1,0,0H49.19a0,0,0,0,1,0,0V8A3,3,0,0,1,52.19,5Z"/><path class="cls-3" d="M31.23,141.56H138.28a0,0,0,0,1,0,0v44.17a3,3,0,0,1-3,3H34.23a3,3,0,0,1-3-3V141.56A0,0,0,0,1,31.23,141.56Z"/><rect class="cls-3" x="49.19" y="52.25" width="107.05" height="47.17"/><polygon class="cls-4" points="138.28 141.57 31.23 141.57 49.29 99.26 156.35 99.26 138.28 141.57"/><path class="cls-5" d="M103.78,134.5l6-11.24-33.4-19a6.63,6.63,0,0,0-9,2.44h0a6.64,6.64,0,0,0,2.54,9.13Z"/><path class="cls-6" d="M66.74,111.94a6.63,6.63,0,0,0,3.13,3.87l.64.35a.67.67,0,0,1,.7,0L104.06,134l.73-1.38Z"/><path class="cls-6" d="M66.55,108.89a7.19,7.19,0,0,0-.1,1.13l39.07,21.2.49-.92Z"/><path class="cls-6" d="M67.71,106.1c-.13.19-.26.38-.38.58a7.21,7.21,0,0,0-.33.69l39.73,21.56.69-1.29Z"/><path class="cls-6" d="M70,104.15a6.59,6.59,0,0,0-1.19.78l39.34,21.34.58-1.1Z"/><path class="cls-6" d="M109.46,123.8l.29-.54-33.4-19a6.55,6.55,0,0,0-4.34-.76Z"/><path class="cls-7" d="M67.33,106.68h0a6.64,6.64,0,0,0,2.54,9.13l5.5,3a129.43,129.43,0,0,1,6.22-11.62l-5.24-3A6.63,6.63,0,0,0,67.33,106.68Z"/><path class="cls-8" d="M72.93,116.73c2-3.73,3.84-7.48,6-11l-2.56-1.45a6.63,6.63,0,0,0-9,2.44h0a6.64,6.64,0,0,0,2.54,9.13l2.79,1.53A4.06,4.06,0,0,1,72.93,116.73Z"/><polygon class="cls-9" points="103.78 134.5 115.17 133.07 109.75 123.26 103.78 134.5"/><path class="cls-7" d="M111.59,128.53c-1.07,1.73-2.07,3.58-3.11,5.38l6.69-.84-3-5.48C112,127.91,111.78,128.22,111.59,128.53Z"/><rect class="cls-10" x="113.73" y="60.87" width="5.03" height="27.49" rx="0.76"/><path class="cls-11" d="M118,60.87h-.75v27.5H118a.76.76,0,0,0,.76-.76v-26A.76.76,0,0,0,118,60.87Z"/><rect class="cls-10" x="119.18" y="64.12" width="4.45" height="21.01" rx="0.76"/><path class="cls-11" d="M122.91,64.12v21a.76.76,0,0,0,.72-.75V64.87A.76.76,0,0,0,122.91,64.12Z"/><rect class="cls-10" x="124.11" y="66.93" width="3.39" height="15.37" rx="0.76"/><path class="cls-11" d="M126.74,66.93h-.44V82.31h.44a.76.76,0,0,0,.76-.76V67.69A.76.76,0,0,0,126.74,66.93Z"/><rect class="cls-10" x="89.04" y="60.87" width="5.03" height="27.49" rx="0.76" transform="translate(183.12 149.24) rotate(-180)"/><rect class="cls-10" x="84.18" y="64.12" width="4.45" height="21.01" rx="0.76" transform="translate(172.81 149.24) rotate(-180)"/><rect class="cls-10" x="80.31" y="66.93" width="3.39" height="15.37" rx="0.76" transform="translate(164.01 149.24) rotate(-180)"/><line class="cls-12" x1="92.85" y1="74.56" x2="116.95" y2="74.56"/><path class="cls-13" d="M82.66,39.24l28.06,6a2.08,2.08,0,0,0,2.46-2.47L107,14.57A22.37,22.37,0,0,0,84.27,27.9C82.45,31.75,81.67,35.68,82.66,39.24Z"/><path class="cls-11" d="M109.46,31.63c1.25,4.32,2.25,8.65,3.14,13a2.07,2.07,0,0,0,.58-1.92L107,14.57a16.56,16.56,0,0,0-2.45-.09C106,20.28,107.71,25.61,109.46,31.63Z"/><path class="cls-14" d="M77.73,38.13l5,1.17a22,22,0,0,1,6.68-18.46c4.94-4.94,14.61-6.53,17.56-6.21a34.38,34.38,0,0,0-1.08-5.36s-12-.64-20.7,7.46C80.92,21.11,77,31.75,77.73,38.13Z"/><path class="cls-11" d="M105.92,9.27a20.56,20.56,0,0,0-2.6.06c.49,2.17.84,3.55,1.31,5.34a9.47,9.47,0,0,1,2.37,0A34.38,34.38,0,0,0,105.92,9.27Z"/><circle class="cls-15" cx="93.63" cy="25.46" r="3.6"/><circle class="cls-15" cx="106.15" cy="22.72" r="2.34"/><circle class="cls-15" cx="104.37" cy="36.07" r="3.46"/><circle class="cls-15" cx="93.03" cy="38.41" r="1.44"/><polygon class="cls-16" points="99.39 154.94 82.58 147.43 82.58 162.12 99.39 154.94"/><path class="cls-11" d="M94.16,156.11c-3.91,1.31-7.68,3.27-11.58,4.66v1.35l16.81-7.18-.79-.35Z"/><line class="cls-17" x1="82.11" y1="145.82" x2="82.11" y2="176.03"/><path class="cls-18" d="M102.46,183.35H63.37a1,1,0,0,1-.93-.63l-6-15a1,1,0,0,1,.93-1.37h51a1,1,0,0,1,.93,1.37l-6,15A1,1,0,0,1,102.46,183.35Z"/><path class="cls-11" d="M108.42,166.36H106a5,5,0,0,1-.16.51,33.14,33.14,0,0,1-15.37,16.48h12a1,1,0,0,0,.93-.63l6-15A1,1,0,0,0,108.42,166.36Z"/><circle class="cls-19" cx="157.82" cy="15.17" r="14.78"/><polyline class="cls-20" points="150.29 17.25 153.66 21.27 166.52 10.85"/><circle class="cls-19" cx="156.44" cy="61.1" r="14.78"/><polyline class="cls-20" points="148.91 63.19 152.28 67.21 165.14 56.79"/></g></svg>