<svg xmlns="http://www.w3.org/2000/svg" viewBox="0 0 205 190"><defs><style>.cls-1{fill:#7dcc7a;}.cls-1,.cls-2{opacity:0.5;}.cls-2,.cls-4{fill:#4d9aff;}.cls-3{fill:#b2d4ff;}.cls-12,.cls-5,.cls-7,.cls-8{fill:none;}.cls-5{stroke:#000;stroke-width:2.06px;opacity:0.1;isolation:isolate;}.cls-5,.cls-8{stroke-miterlimit:10;}.cls-6{fill:#ecf3ff;}.cls-7{stroke:#b2d4ff;}.cls-12,.cls-7{stroke-linecap:round;stroke-linejoin:round;}.cls-8{stroke:#fff;}.cls-9{fill:#ff8880;}.cls-10{fill:#fff;}.cls-11{fill:#f08020;}.cls-12{stroke:#314351;}.cls-13{fill:#314351;}</style></defs><title>2</title><g id="fair"><circle class="cls-1" cx="109.66" cy="108.68" r="80.02"/><path class="cls-2" d="M97.54,17.12V27.87s13.77-1.44,18.1.08c.09-7.6,0-10.83,0-10.83Z"/><path class="cls-3" d="M95.89,17.09V27.66s13.77-1.41,18.1.09c.09-7.49,0-10.66,0-10.66Z"/><rect class="cls-4" x="77.21" y="1.24" width="56.11" height="15.89" rx="4"/><path class="cls-1" d="M155.29,44.26l4.16-4.92a3,3,0,0,1,4.41-.18l8.65,8.67a3,3,0,0,1,.11,4.13l-4,4.45"/><path class="cls-3" d="M43.32,55.83l-4.8-4.3a3,3,0,0,1-.05-4.42l8.92-8.4a3,3,0,0,1,4.12,0l5,4.91"/><path class="cls-3" d="M154.77,43l4.16-4.92a3,3,0,0,1,4.41-.18L172,46.6a3,3,0,0,1,.11,4.13l-4,4.46"/><circle class="cls-4" cx="105.65" cy="106.14" r="80.02"/><circle class="cls-5" cx="105.65" cy="106.13" r="79.24"/><circle class="cls-6" cx="105.65" cy="106.14" r="69.68"/><line class="cls-7" x1="105.3" y1="36.9" x2="105.43" y2="46.25"/><line class="cls-7" x1="105.3" y1="167.05" x2="105.43" y2="176.4"/><line class="cls-7" x1="175.52" y1="106.07" x2="166.17" y2="106.2"/><line class="cls-7" x1="45.36" y1="106.07" x2="36.01" y2="106.2"/><line class="cls-7" x1="151.63" y1="53.68" x2="145.44" y2="60.69"/><line class="cls-7" x1="64.18" y1="150.07" x2="57.99" y2="157.09"/><line class="cls-7" x1="154.81" y1="156.48" x2="147.98" y2="150.09"/><line class="cls-7" x1="61" y1="66.26" x2="54.17" y2="59.87"/><circle class="cls-8" cx="105.65" cy="106.14" r="50.51"/><circle class="cls-9" cx="105.65" cy="106.14" r="35.85"/><circle class="cls-10" cx="105.65" cy="106.14" r="23.21"/><circle class="cls-9" cx="105.65" cy="106.14" r="10.08"/><polygon class="cls-11" points="146 77.58 148.61 61.2 170.07 46.03 166.61 61.93 183.17 65.2 161.1 80.87 146 77.58"/><line class="cls-12" x1="108.54" y1="104.26" x2="157.48" y2="69.17"/><path class="cls-13" d="M119.52,104.69l-14,2.46a.65.65,0,0,1-.67-1l7.84-13-.26,8.35Z"/></g></svg>