<?xml version="1.0" encoding="UTF-8"?>
<svg id="fair" xmlns="http://www.w3.org/2000/svg" viewBox="0 0 205 190">
    <defs>
        <style>.cls-1{fill:#4d9aff;opacity:0.4;}.cls-2{fill:#f4c6ef;}.cls-3{fill:#fff;}.cls-4{fill:none;stroke:#4d9aff;stroke-linecap:round;stroke-linejoin:round;stroke-width:1.93px;}.cls-5{fill:#f58220;}.cls-11,.cls-6{opacity:0.1;isolation:isolate;}.cls-7{fill:#8e8eed;}.cls-8{fill:#7dcc7a;}.cls-9{fill:#ffc74f;}.cls-10{fill:#ff8880;}</style>
    </defs>
    <title>2</title>
    <path class="cls-1" d="M197.75,171.58h0V151.49L188,141.15H20.77c-.25.27-8.36,10.34-8.36,10.34h.43v20.09l-4.29,4.86v2.67H201.09v-2.67Z" />
    <path class="cls-2" d="M18.28,139.52H185.47l9.78,10.33H9.92S18,139.78,18.28,139.52Z" />
    <polygon class="cls-3" points="195.25 149.85 10.35 149.85 10.35 170.59 195.26 170.59 195.25 149.85" />
    <polygon class="cls-2" points="10.35 169.94 6.06 174.8 198.61 174.8 195.26 169.94 10.35 169.94" />
    <polygon class="cls-3" points="198.61 174.8 6.06 174.8 6.06 177.47 198.6 177.47 198.61 174.8" />
    <line class="cls-4" x1="40.54" y1="7.25" x2="40.54" y2="141.48" />
    <line class="cls-4" x1="81.9" y1="6.6" x2="81.9" y2="140.84" />
    <line class="cls-4" x1="123.27" y1="7.89" x2="123.27" y2="142.12" />
    <line class="cls-4" x1="164.63" y1="6.6" x2="164.63" y2="140.84" />
    <ellipse class="cls-5" cx="40.54" cy="130.93" rx="12.08" ry="11.39" />
    <path class="cls-6" d="M42.62,119.72a18.82,18.82,0,0,1,5.24,14.6,28.88,28.88,0,0,1-1,6.3,11.25,11.25,0,0,0,5.76-9.69A11.61,11.61,0,0,0,42.62,119.72Z" />
    <ellipse class="cls-7" cx="40.54" cy="85.97" rx="12.08" ry="11.39" />
    <path class="cls-6" d="M42.62,74.77a18.79,18.79,0,0,1,5.24,14.6,28.88,28.88,0,0,1-1,6.29A11.25,11.25,0,0,0,52.62,86,11.59,11.59,0,0,0,42.62,74.77Z" />
    <ellipse class="cls-8" cx="81.9" cy="130.68" rx="12.08" ry="11.39" />
    <path class="cls-6" d="M84,119.48a18.8,18.8,0,0,1,5.25,14.6,30.14,30.14,0,0,1-1,6.29A11.24,11.24,0,0,0,94,130.68,11.59,11.59,0,0,0,84,119.48Z" />
    <ellipse class="cls-9" cx="123.27" cy="131.49" rx="12.08" ry="11.39" />
    <path class="cls-6" d="M125.35,120.28a18.81,18.81,0,0,1,5.24,14.6,29.69,29.69,0,0,1-1,6.3,11.25,11.25,0,0,0,5.75-9.69A11.6,11.6,0,0,0,125.35,120.28Z" />
    <ellipse class="cls-5" cx="123.27" cy="108.66" rx="12.08" ry="11.39" />
    <path class="cls-6" d="M125.35,97.46a18.81,18.81,0,0,1,5.24,14.6,29.5,29.5,0,0,1-1,6.29,11.24,11.24,0,0,0,5.75-9.69A11.6,11.6,0,0,0,125.35,97.46Z" />
    <ellipse class="cls-9" cx="123.27" cy="35.51" rx="12.08" ry="11.39" />
    <path class="cls-6" d="M125.35,24.31a18.81,18.81,0,0,1,5.24,14.6,29.5,29.5,0,0,1-1,6.29,11.24,11.24,0,0,0,5.75-9.69A11.6,11.6,0,0,0,125.35,24.31Z" />
    <ellipse class="cls-10" cx="164.63" cy="130.68" rx="12.08" ry="11.39" />
    <path class="cls-6" d="M166.71,119.48a18.79,18.79,0,0,1,5.24,14.6,28.88,28.88,0,0,1-1,6.29,11.25,11.25,0,0,0,5.76-9.69A11.59,11.59,0,0,0,166.71,119.48Z" />
    <ellipse class="cls-10" cx="164.63" cy="83.8" rx="12.08" ry="11.39" />
    <path class="cls-6" d="M166.71,72.59A18.83,18.83,0,0,1,172,87.2a28.88,28.88,0,0,1-1,6.29,11.25,11.25,0,0,0,5.76-9.69A11.61,11.61,0,0,0,166.71,72.59Z" />
    <path class="cls-9" d="M39.55,98.32l-12.81,19.5a1.18,1.18,0,0,0,1,1.83H53.35a1.18,1.18,0,0,0,1-1.83L41.53,98.32A1.18,1.18,0,0,0,39.55,98.32Z" />
    <path class="cls-6" d="M54.34,117.82,41.53,98.32a1.18,1.18,0,0,0-.83-.52c.1.14.2.29.29.44,3.89,6.81,6.16,14.07,3.31,21.41h9.05A1.18,1.18,0,0,0,54.34,117.82Z" />
    <path class="cls-8" d="M122.28,75.9,109.47,95.4a1.18,1.18,0,0,0,1,1.83h25.61a1.18,1.18,0,0,0,1-1.83L124.25,75.9A1.17,1.17,0,0,0,122.28,75.9Z" />
    <path class="cls-6" d="M137.06,95.4,124.25,75.9a1.14,1.14,0,0,0-.82-.52c.1.14.19.29.28.44,3.89,6.81,6.17,14.07,3.32,21.41h9A1.18,1.18,0,0,0,137.06,95.4Z" />
    <path class="cls-8" d="M163.64,97l-12.81,19.5a1.19,1.19,0,0,0,1,1.84h25.62a1.19,1.19,0,0,0,1-1.84L165.62,97A1.19,1.19,0,0,0,163.64,97Z" />
    <path class="cls-6" d="M178.43,116.52,165.62,97a1.17,1.17,0,0,0-.83-.51,4.73,4.73,0,0,1,.28.44c3.89,6.81,6.17,14.06,3.32,21.41h9.05A1.19,1.19,0,0,0,178.43,116.52Z" />
    <rect class="cls-7" x="71.59" y="97.7" width="20.63" height="20.63" rx="1.12" />
    <path class="cls-6" d="M91.09,97.7H89.26c.42,5-1.09,10.59-2.43,15.06a55.91,55.91,0,0,1-2,5.57h6.29a1.14,1.14,0,0,0,1.13-1.13V98.82A1.13,1.13,0,0,0,91.09,97.7Z" />
    <rect class="cls-9" x="154.31" y="51.73" width="20.63" height="20.63" rx="1.12" />
    <path class="cls-6" d="M173.82,51.73H172c.42,5-1.08,10.6-2.43,15.07a53.27,53.27,0,0,1-2,5.57h6.29a1.13,1.13,0,0,0,1.12-1.13V52.86A1.13,1.13,0,0,0,173.82,51.73Z" />
    <rect class="cls-10" x="112.95" y="50.73" width="20.63" height="20.63" rx="1.12" transform="translate(-7.06 105.04) rotate(-45)" />
    <g class="cls-11">
        <path d="M137.06,60.25,126.85,50c1.88,6.08,3.28,11.51,0,17.57a67.48,67.48,0,0,1-4.49,7.07l.16.16a1.12,1.12,0,0,0,1.59,0l13-13A1.12,1.12,0,0,0,137.06,60.25Z" />
    </g>
</svg>